<svg xmlns="http://www.w3.org/2000/svg" xmlns:xlink="http://www.w3.org/1999/xlink" width="500" zoomAndPan="magnify" viewBox="0 0 375 374.999991" height="500" preserveAspectRatio="xMidYMid meet" version="1.0"><defs><g/></defs><g fill="#000000" fill-opacity="1"><g transform="translate(44.73956, 226.750991)"><g><path d="M 4.6875 0 L 4.6875 -2.46875 L 15.46875 -4.21875 L 15.46875 -89.546875 L 4.6875 -91.1875 L 4.6875 -93.765625 L 39.140625 -93.765625 L 39.140625 -91.1875 L 28.359375 -89.546875 L 28.359375 -47.34375 L 66.453125 -86.265625 L 53.671875 -91.1875 L 53.671875 -93.765625 L 80.75 -93.765625 L 80.75 -91.1875 L 71.140625 -86.265625 L 44.53125 -59.546875 L 82.046875 -4.21875 L 90.015625 -2.46875 L 90.015625 0 L 55.4375 0 L 55.4375 -2.46875 L 66.109375 -4.109375 L 35.390625 -50.390625 L 28.359375 -43.25 L 28.359375 -4.21875 L 39.140625 -2.46875 L 39.140625 0 Z M 4.6875 0 "/></g></g></g><g fill="#000000" fill-opacity="1"><g transform="translate(243.719455, 226.750991)"><g><path d="M 4.6875 0 L 4.6875 -2.46875 L 15.46875 -4.21875 L 15.46875 -89.546875 L 4.6875 -91.1875 L 4.6875 -93.765625 L 39.140625 -93.765625 L 39.140625 -91.1875 L 28.359375 -89.546875 L 28.359375 -47.34375 L 66.453125 -86.265625 L 53.671875 -91.1875 L 53.671875 -93.765625 L 80.75 -93.765625 L 80.75 -91.1875 L 71.140625 -86.265625 L 44.53125 -59.546875 L 82.046875 -4.21875 L 90.015625 -2.46875 L 90.015625 0 L 55.4375 0 L 55.4375 -2.46875 L 66.109375 -4.109375 L 35.390625 -50.390625 L 28.359375 -43.25 L 28.359375 -4.21875 L 39.140625 -2.46875 L 39.140625 0 Z M 4.6875 0 "/></g></g></g><g fill="#000000" fill-opacity="1"><g transform="translate(132.122926, 217.251537)"><g><path d="M 107.9375 0.703125 C 107.394531 0.703125 106.5 0.660156 105.25 0.578125 C 104 0.503906 102.707031 0.425781 101.375 0.34375 C 100.050781 0.269531 98.765625 0.191406 97.515625 0.109375 C 96.265625 0.0351562 95.363281 0 94.8125 0 L 87.90625 0 C 87.351562 0 86.453125 0.0351562 85.203125 0.109375 C 83.953125 0.191406 82.660156 0.269531 81.328125 0.34375 C 80.003906 0.425781 78.71875 0.503906 77.46875 0.578125 C 76.21875 0.660156 75.320312 0.703125 74.78125 0.703125 L 74.421875 0.234375 L 74.78125 -4.21875 L 75.25 -4.6875 L 76.53125 -4.6875 C 78.800781 -4.6875 80.578125 -5.054688 81.859375 -5.796875 C 83.148438 -6.546875 83.796875 -8.050781 83.796875 -10.3125 L 81.21875 -48.640625 C 81.0625 -50.429688 80.960938 -51.988281 80.921875 -53.3125 C 80.890625 -54.644531 80.71875 -56.09375 80.40625 -57.65625 C 79.9375 -56.25 79.191406 -54.253906 78.171875 -51.671875 C 77.160156 -49.097656 76.007812 -46.148438 74.71875 -42.828125 C 73.425781 -39.515625 72.035156 -35.984375 70.546875 -32.234375 C 69.066406 -28.484375 67.582031 -24.75 66.09375 -21.03125 C 64.613281 -17.320312 63.226562 -13.769531 61.9375 -10.375 C 60.65625 -6.976562 59.546875 -4.03125 58.609375 -1.53125 L 48.984375 -1.53125 L 28.484375 -57.3125 C 28.484375 -55.4375 28.40625 -53.890625 28.25 -52.671875 C 28.09375 -51.460938 27.9375 -49.921875 27.78125 -48.046875 L 26.375 -28.828125 C 26.21875 -26.253906 26.078125 -24.125 25.953125 -22.4375 C 25.835938 -20.757812 25.757812 -19.332031 25.71875 -18.15625 C 25.6875 -16.988281 25.671875 -15.972656 25.671875 -15.109375 C 25.671875 -14.253906 25.671875 -13.398438 25.671875 -12.546875 C 25.671875 -10.273438 25.921875 -8.707031 26.421875 -7.84375 C 26.929688 -6.988281 27.5 -6.328125 28.125 -5.859375 C 28.75 -5.234375 29.472656 -4.878906 30.296875 -4.796875 C 31.117188 -4.722656 32.15625 -4.6875 33.40625 -4.6875 L 33.875 -4.21875 L 34.21875 0.234375 L 33.984375 0.703125 C 33.441406 0.703125 32.640625 0.660156 31.578125 0.578125 C 30.523438 0.503906 29.453125 0.425781 28.359375 0.34375 C 27.265625 0.269531 26.191406 0.191406 25.140625 0.109375 C 24.085938 0.0351562 23.285156 0 22.734375 0 L 15.828125 0 C 15.273438 0 14.394531 0.0351562 13.1875 0.109375 C 11.976562 0.191406 10.6875 0.269531 9.3125 0.34375 C 7.945312 0.425781 6.660156 0.503906 5.453125 0.578125 C 4.242188 0.660156 3.363281 0.703125 2.8125 0.703125 L 2.578125 0.234375 L 2.9375 -4.21875 L 3.640625 -4.6875 C 4.804688 -4.6875 5.9375 -4.742188 7.03125 -4.859375 C 8.125 -4.984375 9.0625 -5.316406 9.84375 -5.859375 C 10.46875 -6.410156 11.09375 -7.113281 11.71875 -7.96875 C 12.34375 -8.832031 12.851562 -10.359375 13.25 -12.546875 C 13.40625 -13.484375 13.597656 -14.769531 13.828125 -16.40625 C 14.066406 -18.050781 14.34375 -20.828125 14.65625 -24.734375 L 16.296875 -46.171875 C 16.523438 -48.910156 16.695312 -51.21875 16.8125 -53.09375 C 16.9375 -54.96875 17.015625 -56.566406 17.046875 -57.890625 C 17.085938 -59.222656 17.128906 -60.359375 17.171875 -61.296875 C 17.210938 -62.234375 17.234375 -63.171875 17.234375 -64.109375 C 17.234375 -66.378906 16.898438 -67.941406 16.234375 -68.796875 C 15.566406 -69.660156 14.921875 -70.328125 14.296875 -70.796875 C 13.597656 -71.421875 12.703125 -71.769531 11.609375 -71.84375 C 10.515625 -71.925781 9.34375 -71.96875 8.09375 -71.96875 L 7.5 -72.4375 L 7.15625 -76.890625 L 7.390625 -77.359375 C 7.929688 -77.359375 8.828125 -77.316406 10.078125 -77.234375 C 11.328125 -77.160156 12.613281 -77.082031 13.9375 -77 C 15.269531 -76.925781 16.5625 -76.847656 17.8125 -76.765625 C 19.0625 -76.691406 19.960938 -76.65625 20.515625 -76.65625 L 29.53125 -76.65625 C 30.082031 -76.65625 30.804688 -76.691406 31.703125 -76.765625 C 32.597656 -76.847656 33.4375 -76.96875 34.21875 -77.125 L 34.8125 -76.765625 C 34.882812 -75.671875 35.175781 -74.144531 35.6875 -72.1875 C 36.195312 -70.238281 36.820312 -68.09375 37.5625 -65.75 C 38.300781 -63.40625 39.140625 -60.921875 40.078125 -58.296875 C 41.015625 -55.679688 41.953125 -53.125 42.890625 -50.625 L 50.28125 -31.640625 C 51.132812 -29.535156 51.988281 -27.3125 52.84375 -24.96875 C 53.707031 -22.625 54.492188 -20.394531 55.203125 -18.28125 C 55.429688 -18.59375 56.054688 -19.957031 57.078125 -22.375 C 58.097656 -24.800781 59.3125 -27.8125 60.71875 -31.40625 C 62.125 -35 63.625 -38.960938 65.21875 -43.296875 C 66.820312 -47.640625 68.347656 -51.921875 69.796875 -56.140625 C 71.242188 -60.359375 72.492188 -64.285156 73.546875 -67.921875 C 74.597656 -71.554688 75.28125 -74.46875 75.59375 -76.65625 L 76.1875 -77.125 C 76.8125 -76.96875 77.472656 -76.847656 78.171875 -76.765625 C 78.878906 -76.691406 79.546875 -76.65625 80.171875 -76.65625 L 90.25 -76.65625 C 90.789062 -76.65625 91.6875 -76.691406 92.9375 -76.765625 C 94.1875 -76.847656 95.472656 -76.925781 96.796875 -77 C 98.128906 -77.082031 99.421875 -77.160156 100.671875 -77.234375 C 101.921875 -77.316406 102.820312 -77.359375 103.375 -77.359375 L 103.609375 -76.890625 L 103.25 -72.4375 L 102.671875 -71.96875 C 101.492188 -71.96875 100.335938 -71.90625 99.203125 -71.78125 C 98.078125 -71.664062 97.160156 -71.335938 96.453125 -70.796875 C 95.828125 -70.328125 95.179688 -69.625 94.515625 -68.6875 C 93.859375 -67.75 93.53125 -66.222656 93.53125 -64.109375 C 93.53125 -63.015625 93.53125 -62 93.53125 -61.0625 C 93.53125 -60.125 93.566406 -59.03125 93.640625 -57.78125 C 93.722656 -56.53125 93.820312 -55.003906 93.9375 -53.203125 C 94.050781 -51.410156 94.226562 -49.109375 94.46875 -46.296875 L 95.875 -29.421875 C 96.101562 -26.609375 96.296875 -24.320312 96.453125 -22.5625 C 96.609375 -20.800781 96.742188 -19.332031 96.859375 -18.15625 C 96.984375 -16.988281 97.082031 -15.992188 97.15625 -15.171875 C 97.238281 -14.359375 97.359375 -13.484375 97.515625 -12.546875 C 97.828125 -10.273438 98.296875 -8.707031 98.921875 -7.84375 C 99.546875 -6.988281 100.171875 -6.328125 100.796875 -5.859375 C 101.492188 -5.234375 102.410156 -4.878906 103.546875 -4.796875 C 104.679688 -4.722656 105.875 -4.6875 107.125 -4.6875 L 107.703125 -4.21875 L 108.0625 0.234375 Z M 107.9375 0.703125 "/></g></g></g><path stroke-linecap="butt" transform="matrix(0.75, 0.00000000000000016, -0.00000000000000016, 0.75, 37.500002, 170.03246)" fill="none" stroke-linejoin="miter" d="M -0.00000271667 18.998388 L 400.000024 18.998388 " stroke="#ffffff" stroke-width="38" stroke-opacity="1" stroke-miterlimit="4"/><g fill="#000000" fill-opacity="1"><g transform="translate(49.090234, 187.769313)"><g><path d="M 0.484375 -0.25 L 1.609375 -0.4375 L 1.609375 -9.3125 L 0.484375 -9.484375 L 0.484375 -9.75 L 4.203125 -9.75 C 5.078125 -9.75 5.773438 -9.664062 6.296875 -9.5 C 6.816406 -9.34375 7.191406 -9.097656 7.421875 -8.765625 C 7.660156 -8.441406 7.78125 -8.007812 7.78125 -7.46875 C 7.78125 -6.300781 7.039062 -5.554688 5.5625 -5.234375 L 5.5625 -5.171875 C 6.46875 -5.046875 7.171875 -4.773438 7.671875 -4.359375 C 8.171875 -3.941406 8.421875 -3.363281 8.421875 -2.625 C 8.421875 -1.738281 8.09375 -1.078125 7.4375 -0.640625 C 6.78125 -0.210938 5.898438 0 4.796875 0 L 0.484375 0 Z M 4.296875 -5.265625 C 4.953125 -5.265625 5.453125 -5.445312 5.796875 -5.8125 C 6.148438 -6.175781 6.328125 -6.695312 6.328125 -7.375 L 6.328125 -7.453125 C 6.328125 -8.773438 5.617188 -9.4375 4.203125 -9.4375 L 2.953125 -9.4375 L 2.953125 -5.265625 Z M 4.796875 -0.296875 C 5.484375 -0.296875 6.015625 -0.492188 6.390625 -0.890625 C 6.773438 -1.296875 6.96875 -1.875 6.96875 -2.625 L 6.96875 -2.75 C 6.96875 -3.488281 6.78125 -4.039062 6.40625 -4.40625 C 6.03125 -4.769531 5.492188 -4.953125 4.796875 -4.953125 L 2.953125 -4.953125 L 2.953125 -0.296875 Z M 4.796875 -0.296875 "/></g></g></g><g fill="#000000" fill-opacity="1"><g transform="translate(67.920642, 187.769313)"><g><path d="M 0.484375 0 L 0.484375 -0.25 L 1.609375 -0.4375 L 1.609375 -9.3125 L 0.484375 -9.484375 L 0.484375 -9.75 L 7.828125 -9.75 L 7.828125 -6.953125 L 7.5 -6.953125 L 6.5625 -9.4375 L 2.953125 -9.4375 L 2.953125 -5.0625 L 4.53125 -5.0625 L 5.25 -6.828125 L 5.5625 -6.828125 L 5.5625 -2.96875 L 5.25 -2.96875 L 4.515625 -4.765625 L 2.953125 -4.765625 L 2.953125 -0.296875 L 6.78125 -0.296875 L 7.78125 -2.96875 L 8.09375 -2.96875 L 8.09375 0 Z M 0.484375 0 "/></g></g></g><g fill="#000000" fill-opacity="1"><g transform="translate(86.45855, 187.769313)"><g><path d="M 0.484375 0 L 0.484375 -0.25 L 1.609375 -0.4375 L 1.609375 -9.3125 L 0.484375 -9.484375 L 0.484375 -9.75 L 7.828125 -9.75 L 7.828125 -6.953125 L 7.5 -6.953125 L 6.5625 -9.4375 L 2.953125 -9.4375 L 2.953125 -5.0625 L 4.53125 -5.0625 L 5.25 -6.828125 L 5.5625 -6.828125 L 5.5625 -2.96875 L 5.25 -2.96875 L 4.515625 -4.765625 L 2.953125 -4.765625 L 2.953125 -0.296875 L 6.78125 -0.296875 L 7.78125 -2.96875 L 8.09375 -2.96875 L 8.09375 0 Z M 0.484375 0 "/></g></g></g><g fill="#000000" fill-opacity="1"><g transform="translate(104.996461, 187.769313)"><g><path d="M 0.484375 0 L 0.484375 -0.25 L 1.609375 -0.4375 L 1.609375 -9.3125 L 0.484375 -9.484375 L 0.484375 -9.75 L 4.078125 -9.75 L 4.078125 -9.484375 L 2.953125 -9.3125 L 2.953125 -5.3125 L 7.578125 -5.3125 L 7.578125 -9.3125 L 6.453125 -9.484375 L 6.453125 -9.75 L 10.046875 -9.75 L 10.046875 -9.484375 L 8.921875 -9.3125 L 8.921875 -0.4375 L 10.046875 -0.25 L 10.046875 0 L 6.453125 0 L 6.453125 -0.25 L 7.578125 -0.4375 L 7.578125 -5.015625 L 2.953125 -5.015625 L 2.953125 -0.4375 L 4.078125 -0.25 L 4.078125 0 Z M 0.484375 0 "/></g></g></g><g fill="#000000" fill-opacity="1"><g transform="translate(125.289352, 187.769313)"><g><path d="M 0.484375 0 L 0.484375 -0.25 L 1.609375 -0.4375 L 1.609375 -9.3125 L 0.484375 -9.484375 L 0.484375 -9.75 L 4.078125 -9.75 L 4.078125 -9.484375 L 2.953125 -9.3125 L 2.953125 -0.4375 L 4.078125 -0.25 L 4.078125 0 Z M 0.484375 0 "/></g></g></g><g fill="#000000" fill-opacity="1"><g transform="translate(139.598219, 187.769313)"><g><path d="M 4.125 0.25 L 0.625 -9.3125 L -0.359375 -9.484375 L -0.359375 -9.75 L 3.21875 -9.75 L 3.21875 -9.484375 L 2.078125 -9.328125 L 4.75 -2.03125 L 7.390625 -8.9375 L 5.984375 -9.484375 L 5.984375 -9.75 L 8.609375 -9.75 L 8.609375 -9.484375 L 7.71875 -8.953125 L 4.234375 0.25 Z M 4.125 0.25 "/></g></g></g><g fill="#000000" fill-opacity="1"><g transform="translate(157.648629, 187.769313)"><g><path d="M 0.484375 0 L 0.484375 -0.25 L 1.609375 -0.4375 L 1.609375 -9.3125 L 0.484375 -9.484375 L 0.484375 -9.75 L 7.828125 -9.75 L 7.828125 -6.953125 L 7.5 -6.953125 L 6.5625 -9.4375 L 2.953125 -9.4375 L 2.953125 -5.0625 L 4.53125 -5.0625 L 5.25 -6.828125 L 5.5625 -6.828125 L 5.5625 -2.96875 L 5.25 -2.96875 L 4.515625 -4.765625 L 2.953125 -4.765625 L 2.953125 -0.296875 L 6.78125 -0.296875 L 7.78125 -2.96875 L 8.09375 -2.96875 L 8.09375 0 Z M 0.484375 0 "/></g></g></g><g fill="#000000" fill-opacity="1"><g transform="translate(176.186535, 187.769313)"><g><path d="M 4.34375 0.25 C 3.59375 0.25 2.851562 0.03125 2.125 -0.40625 L 1.078125 0.125 L 0.8125 0.125 L 0.8125 -3.015625 L 1.078125 -3.015625 L 2.125 -0.75 C 2.800781 -0.269531 3.578125 -0.03125 4.453125 -0.03125 C 5.160156 -0.03125 5.75 -0.21875 6.21875 -0.59375 C 6.6875 -0.96875 6.921875 -1.5 6.921875 -2.1875 C 6.921875 -2.675781 6.769531 -3.066406 6.46875 -3.359375 C 6.164062 -3.648438 5.679688 -3.878906 5.015625 -4.046875 L 2.984375 -4.5625 C 2.273438 -4.75 1.742188 -5.066406 1.390625 -5.515625 C 1.035156 -5.972656 0.859375 -6.507812 0.859375 -7.125 C 0.859375 -7.6875 0.96875 -8.1875 1.1875 -8.625 C 1.40625 -9.0625 1.726562 -9.398438 2.15625 -9.640625 C 2.59375 -9.878906 3.109375 -10 3.703125 -10 C 4.441406 -10 5.101562 -9.867188 5.6875 -9.609375 L 6.578125 -10 L 6.84375 -10 L 6.84375 -7.5 L 6.578125 -7.5 L 5.703125 -9.28125 C 5.097656 -9.570312 4.4375 -9.71875 3.71875 -9.71875 C 3.007812 -9.71875 2.453125 -9.535156 2.046875 -9.171875 C 1.640625 -8.816406 1.4375 -8.34375 1.4375 -7.75 C 1.4375 -7.3125 1.578125 -6.96875 1.859375 -6.71875 C 2.148438 -6.46875 2.578125 -6.269531 3.140625 -6.125 L 5.328125 -5.546875 C 6.035156 -5.367188 6.5625 -5.0625 6.90625 -4.625 C 7.25 -4.1875 7.421875 -3.523438 7.421875 -2.640625 C 7.421875 -1.742188 7.140625 -1.035156 6.578125 -0.515625 C 6.023438 -0.00390625 5.28125 0.25 4.34375 0.25 Z M 4.34375 0.25 "/></g></g></g><g fill="#000000" fill-opacity="1"><g transform="translate(194.054137, 187.769313)"><g/></g></g><g fill="#000000" fill-opacity="1"><g transform="translate(206.717711, 187.769313)"><g><path d="M 4.5625 0.25 C 3.25 0.25 2.269531 -0.0078125 1.625 -0.53125 C 0.976562 -1.0625 0.65625 -1.769531 0.65625 -2.65625 C 0.65625 -3.507812 0.960938 -4.171875 1.578125 -4.640625 C 2.203125 -5.109375 3.019531 -5.363281 4.03125 -5.40625 L 4.03125 -5.453125 C 3.019531 -5.578125 2.273438 -5.816406 1.796875 -6.171875 C 1.316406 -6.523438 1.078125 -7.085938 1.078125 -7.859375 C 1.078125 -8.546875 1.347656 -9.070312 1.890625 -9.4375 C 2.441406 -9.8125 3.207031 -10 4.1875 -10 C 4.84375 -10 5.394531 -9.835938 5.84375 -9.515625 C 6.289062 -9.203125 6.515625 -8.78125 6.515625 -8.25 C 6.515625 -7.976562 6.4375 -7.765625 6.28125 -7.609375 C 6.132812 -7.460938 5.960938 -7.390625 5.765625 -7.390625 C 5.554688 -7.390625 5.382812 -7.453125 5.25 -7.578125 C 5.113281 -7.703125 5.046875 -7.878906 5.046875 -8.109375 C 5.390625 -8.265625 5.5625 -8.523438 5.5625 -8.890625 C 5.5625 -9.140625 5.453125 -9.335938 5.234375 -9.484375 C 5.015625 -9.640625 4.710938 -9.71875 4.328125 -9.71875 C 3.773438 -9.71875 3.332031 -9.550781 3 -9.21875 C 2.675781 -8.894531 2.515625 -8.460938 2.515625 -7.921875 C 2.515625 -7.140625 2.742188 -6.5625 3.203125 -6.1875 C 3.660156 -5.820312 4.332031 -5.613281 5.21875 -5.5625 L 5.21875 -5.296875 C 4.257812 -5.242188 3.535156 -4.992188 3.046875 -4.546875 C 2.566406 -4.097656 2.328125 -3.46875 2.328125 -2.65625 C 2.328125 -2.113281 2.429688 -1.644531 2.640625 -1.25 C 2.847656 -0.851562 3.128906 -0.550781 3.484375 -0.34375 C 3.835938 -0.132812 4.234375 -0.03125 4.671875 -0.03125 C 5.328125 -0.03125 5.859375 -0.234375 6.265625 -0.640625 C 6.679688 -1.046875 6.890625 -1.625 6.890625 -2.375 C 6.890625 -2.675781 6.847656 -3 6.765625 -3.34375 L 6.28125 -3.40625 C 5.914062 -3.476562 5.628906 -3.515625 5.421875 -3.515625 C 5.078125 -3.515625 4.785156 -3.460938 4.546875 -3.359375 C 4.316406 -3.253906 4.203125 -3.085938 4.203125 -2.859375 C 4.203125 -2.742188 4.238281 -2.65625 4.3125 -2.59375 C 4.382812 -2.539062 4.476562 -2.515625 4.59375 -2.515625 C 4.695312 -2.515625 4.800781 -2.539062 4.90625 -2.59375 C 5.007812 -2.65625 5.085938 -2.738281 5.140625 -2.84375 C 5.335938 -2.789062 5.484375 -2.703125 5.578125 -2.578125 C 5.679688 -2.460938 5.734375 -2.328125 5.734375 -2.171875 C 5.734375 -1.972656 5.660156 -1.800781 5.515625 -1.65625 C 5.378906 -1.507812 5.207031 -1.4375 5 -1.4375 C 4.6875 -1.4375 4.425781 -1.570312 4.21875 -1.84375 C 4.019531 -2.113281 3.921875 -2.441406 3.921875 -2.828125 C 3.921875 -3.140625 4 -3.429688 4.15625 -3.703125 C 4.3125 -3.972656 4.535156 -4.1875 4.828125 -4.34375 C 5.128906 -4.5 5.476562 -4.578125 5.875 -4.578125 C 6.257812 -4.578125 6.710938 -4.535156 7.234375 -4.453125 C 7.640625 -4.378906 7.984375 -4.34375 8.265625 -4.34375 C 8.640625 -4.34375 8.941406 -4.398438 9.171875 -4.515625 C 9.410156 -4.640625 9.53125 -4.804688 9.53125 -5.015625 C 9.53125 -5.128906 9.492188 -5.21875 9.421875 -5.28125 C 9.359375 -5.34375 9.269531 -5.375 9.15625 -5.375 C 9.039062 -5.375 8.929688 -5.34375 8.828125 -5.28125 C 8.722656 -5.226562 8.648438 -5.144531 8.609375 -5.03125 C 8.398438 -5.082031 8.242188 -5.164062 8.140625 -5.28125 C 8.046875 -5.394531 8 -5.535156 8 -5.703125 C 8 -5.898438 8.070312 -6.070312 8.21875 -6.21875 C 8.363281 -6.363281 8.539062 -6.4375 8.75 -6.4375 C 9.0625 -6.4375 9.3125 -6.316406 9.5 -6.078125 C 9.6875 -5.835938 9.78125 -5.53125 9.78125 -5.15625 C 9.78125 -3.875 9.171875 -3.234375 7.953125 -3.234375 C 7.609375 -3.234375 7.320312 -3.253906 7.09375 -3.296875 C 7.15625 -2.960938 7.1875 -2.664062 7.1875 -2.40625 C 7.1875 -1.5625 6.953125 -0.90625 6.484375 -0.4375 C 6.015625 0.0195312 5.375 0.25 4.5625 0.25 Z M 4.5625 0.25 "/></g></g></g><g fill="#000000" fill-opacity="1"><g transform="translate(226.474366, 187.769313)"><g/></g></g><g fill="#000000" fill-opacity="1"><g transform="translate(239.13794, 187.769313)"><g><path d="M 0.484375 0 L 0.484375 -0.25 L 1.609375 -0.4375 L 1.609375 -9.3125 L 0.484375 -9.484375 L 0.484375 -9.75 L 4.078125 -9.75 L 4.078125 -9.484375 L 2.953125 -9.3125 L 2.953125 -5.3125 L 7.578125 -5.3125 L 7.578125 -9.3125 L 6.453125 -9.484375 L 6.453125 -9.75 L 10.046875 -9.75 L 10.046875 -9.484375 L 8.921875 -9.3125 L 8.921875 -0.4375 L 10.046875 -0.25 L 10.046875 0 L 6.453125 0 L 6.453125 -0.25 L 7.578125 -0.4375 L 7.578125 -5.015625 L 2.953125 -5.015625 L 2.953125 -0.4375 L 4.078125 -0.25 L 4.078125 0 Z M 0.484375 0 "/></g></g></g><g fill="#000000" fill-opacity="1"><g transform="translate(259.430842, 187.769313)"><g><path d="M 5.25 0.25 C 4.363281 0.25 3.570312 0.0351562 2.875 -0.390625 C 2.175781 -0.828125 1.628906 -1.429688 1.234375 -2.203125 C 0.847656 -2.984375 0.65625 -3.875 0.65625 -4.875 C 0.65625 -5.875 0.847656 -6.757812 1.234375 -7.53125 C 1.628906 -8.3125 2.175781 -8.914062 2.875 -9.34375 C 3.570312 -9.78125 4.363281 -10 5.25 -10 C 6.132812 -10 6.925781 -9.78125 7.625 -9.34375 C 8.320312 -8.914062 8.863281 -8.3125 9.25 -7.53125 C 9.644531 -6.757812 9.84375 -5.875 9.84375 -4.875 C 9.84375 -3.875 9.644531 -2.984375 9.25 -2.203125 C 8.863281 -1.429688 8.320312 -0.828125 7.625 -0.390625 C 6.925781 0.0351562 6.132812 0.25 5.25 0.25 Z M 5.25 -0.03125 C 5.832031 -0.03125 6.359375 -0.1875 6.828125 -0.5 C 7.296875 -0.8125 7.664062 -1.257812 7.9375 -1.84375 C 8.207031 -2.4375 8.34375 -3.132812 8.34375 -3.9375 L 8.34375 -5.8125 C 8.34375 -6.613281 8.207031 -7.304688 7.9375 -7.890625 C 7.664062 -8.484375 7.296875 -8.9375 6.828125 -9.25 C 6.359375 -9.5625 5.832031 -9.71875 5.25 -9.71875 C 4.65625 -9.71875 4.125 -9.5625 3.65625 -9.25 C 3.195312 -8.9375 2.832031 -8.484375 2.5625 -7.890625 C 2.300781 -7.304688 2.171875 -6.613281 2.171875 -5.8125 L 2.171875 -3.9375 C 2.171875 -3.132812 2.300781 -2.4375 2.5625 -1.84375 C 2.832031 -1.257812 3.195312 -0.8125 3.65625 -0.5 C 4.125 -0.1875 4.65625 -0.03125 5.25 -0.03125 Z M 5.25 -0.03125 "/></g></g></g><g fill="#000000" fill-opacity="1"><g transform="translate(279.687181, 187.769313)"><g><path d="M 0.53125 0 L 0.53125 -0.25 L 1.65625 -0.75 L 1.65625 -9 L 0.53125 -9.484375 L 0.53125 -9.75 L 2.796875 -9.75 L 8.046875 -2.390625 L 8.046875 -9 L 6.90625 -9.484375 L 6.90625 -9.75 L 9.5 -9.75 L 9.5 -9.484375 L 8.34375 -9 L 8.34375 0 L 8.046875 0 L 1.96875 -8.546875 L 1.96875 -0.75 L 3.125 -0.25 L 3.125 0 Z M 0.53125 0 "/></g></g></g><g fill="#000000" fill-opacity="1"><g transform="translate(299.358521, 187.769313)"><g><path d="M 0.484375 0 L 0.484375 -0.25 L 1.609375 -0.4375 L 1.609375 -9.3125 L 0.484375 -9.484375 L 0.484375 -9.75 L 7.828125 -9.75 L 7.828125 -6.953125 L 7.5 -6.953125 L 6.5625 -9.4375 L 2.953125 -9.4375 L 2.953125 -5.0625 L 4.53125 -5.0625 L 5.25 -6.828125 L 5.5625 -6.828125 L 5.5625 -2.96875 L 5.25 -2.96875 L 4.515625 -4.765625 L 2.953125 -4.765625 L 2.953125 -0.296875 L 6.78125 -0.296875 L 7.78125 -2.96875 L 8.09375 -2.96875 L 8.09375 0 Z M 0.484375 0 "/></g></g></g><g fill="#000000" fill-opacity="1"><g transform="translate(317.896437, 187.769313)"><g><path d="M 2.390625 0 L 2.390625 -0.25 L 3.515625 -0.4375 L 3.515625 -4.140625 L 0.5625 -9.3125 L -0.40625 -9.484375 L -0.40625 -9.75 L 3.265625 -9.75 L 3.265625 -9.484375 L 2.125 -9.3125 L 4.6875 -4.890625 L 7.046875 -8.890625 L 5.578125 -9.484375 L 5.578125 -9.75 L 8.3125 -9.75 L 8.3125 -9.484375 L 7.375 -8.890625 L 4.84375 -4.546875 L 4.84375 -0.4375 L 5.96875 -0.25 L 5.96875 0 Z M 2.390625 0 "/></g></g></g></svg>